<svg width="400" height="75" viewBox="0 0 400 75" xmlns="http://www.w3.org/2000/svg">
    <path d="M22.0341 0H6.42663H2.55028H0V74.7866H2.55028H6.42663H22.0341C31.963 74.7866 40.4638 71.1593 47.5365 63.9047C54.8132 56.4367 58.4515 47.3684 58.4515 36.6999C58.4515 26.6003 54.8132 17.9232 47.5365 10.6686C40.3958 3.5562 31.895 0 22.0341 0ZM22.0341 68.0654H6.42663V6.93456H22.0341C30.5349 6.93456 37.6756 9.85066 43.4561 15.6828C49.1686 21.5149 52.0249 28.5206 52.0249 36.6999C52.0249 45.5903 49.1686 53.0227 43.4561 58.9971C37.6756 65.0427 30.5349 68.0654 22.0341 68.0654ZM100.463 0.106685C92.7784 0.106685 86.1818 2.98722 80.6733 8.74824C75.0967 14.5804 72.3085 21.5149 72.3085 29.5519V45.6614C72.3085 53.5562 75.0967 60.4196 80.6733 66.2518C86.2498 72.0839 92.8464 75 100.463 75C108.148 75 114.778 72.0839 120.355 66.2518C125.864 60.4907 128.618 53.6273 128.618 45.6614V29.5519C128.618 21.4438 125.864 14.5093 120.355 8.74824C114.846 2.98722 108.216 0.106685 100.463 0.106685ZM122.293 29.5519V45.6614C122.293 52.1337 120.117 57.5747 115.765 61.9844C111.48 66.2518 106.38 68.3855 100.463 68.3855C94.5466 68.3855 89.4801 66.2518 85.2637 61.9844C80.9113 57.5747 78.7351 52.1337 78.7351 45.6614V29.5519C78.7351 23.5775 80.9113 18.2432 85.2637 13.5491C89.6161 8.99715 94.6826 6.72119 100.463 6.72119C106.176 6.72119 111.276 8.99715 115.765 13.5491C120.117 18.2432 122.293 23.5775 122.293 29.5519ZM196.744 74.7866V68.0654H178.586C170.153 68.0654 163.081 65.0782 157.368 59.1038C151.656 53.1294 148.799 45.7326 148.799 36.9132C148.799 28.8051 151.656 21.835 157.368 16.0029C163.081 10.1707 170.153 7.25462 178.586 7.25462H196.744V0.320055H178.586C168.317 0.320055 159.714 3.87625 152.778 10.9886C145.841 18.0299 142.373 26.6714 142.373 36.9132C142.373 47.7952 145.841 56.7923 152.778 63.9047C159.578 71.1593 168.181 74.7866 178.586 74.7866H196.744ZM256.301 74.7866H266.604L221.006 36.6999L266.604 0H256.301L217.129 32.6458V0H210.703V74.7866H217.129V42.1408L256.301 74.7866ZM286.99 54.303C286.99 50.8891 288.146 47.7952 290.458 45.0213C292.77 42.1053 295.558 40.6472 298.823 40.6472H300.149H319.225V34.0327H300.149H298.823C295.354 33.3215 292.515 31.7568 290.305 29.3386C288.095 26.9204 286.99 24.0398 286.99 20.697C286.99 16.5007 288.163 13.1757 290.509 10.7219C292.855 8.26815 296.069 7.04125 300.149 7.04125H334.832V0.320055H300.149C294.912 0.320055 290.356 2.34708 286.48 6.40114C282.603 10.3129 280.665 15.0782 280.665 20.697C280.665 24.2532 281.311 27.4893 282.603 30.4054C283.895 33.3215 285.8 35.4196 288.316 36.6999C285.8 38.6202 283.895 41.1451 282.603 44.2745C281.311 47.404 280.665 50.7468 280.665 54.303C280.665 59.8506 282.603 64.5804 286.48 68.4922C290.424 72.6174 294.98 74.6799 300.149 74.6799H334.832V67.6387H300.149C296.069 67.6387 292.855 66.4296 290.509 64.0114C288.163 61.5932 286.99 58.357 286.99 54.303ZM400 0.106685H344.711V6.61451H369.805V75H376.13V6.61451H400V0.106685Z" />
</svg>
