<svg width="20" height="22" viewBox="0 0 20 22" fill="none" xmlns="http://www.w3.org/2000/svg">
<path d="M10 1.71426C7.8495 3.75089 4.94563 5.00001 1.75 5.00001C1.69922 5.00001 1.64852 4.9997 1.59789 4.99907C1.2099 6.17918 1 7.44011 1 8.75006C1 14.3416 4.82432 19.0399 10 20.372M10 1.71426C12.1505 3.75089 15.0544 5.00001 18.25 5.00001C18.3008 5.00001 18.3515 4.9997 18.4021 4.99907C18.7901 6.17918 19 7.44011 19 8.75006C19 14.3416 15.1757 19.0399 10 20.372M10 1.71426L10.133 5.5L10.33 8L10.4 11.0431L10.33 14.5L10.13 17L10 20.372" stroke="#0F172A" stroke-width="1.5" stroke-linecap="round" stroke-linejoin="round"/>
</svg>
